<svg width="25" height="24" viewBox="0 0 25 24" fill="none" xmlns="http://www.w3.org/2000/svg">
<g clip-path="url(#clip0_37_226811)">
<path fill-rule="evenodd" clip-rule="evenodd" d="M15.4131 2.49508C16.202 2.16823 17.0474 2.00001 17.9013 2.00001C18.7551 2.00001 19.6006 2.16823 20.3894 2.49508C21.1781 2.82187 21.8947 3.30081 22.4982 3.90456C23.102 4.50811 23.5813 5.22501 23.908 6.01368C24.2349 6.8025 24.4031 7.64798 24.4031 8.50183C24.4031 9.35568 24.2349 10.2012 23.908 10.99C23.5812 11.7787 23.1022 12.4954 22.4984 13.0989C22.4983 13.099 22.4985 13.0989 22.4984 13.0989L13.6584 21.9389C13.2679 22.3295 12.6347 22.3295 12.2442 21.9389L3.40418 13.0989C2.18496 11.8797 1.5 10.2261 1.5 8.50183C1.5 6.77758 2.18496 5.12395 3.40418 3.90472C4.62341 2.6855 6.27704 2.00054 8.00129 2.00054C9.72554 2.00054 11.3792 2.6855 12.5984 3.90472L12.9513 4.25762L13.304 3.90489C13.304 3.90495 13.3041 3.90484 13.304 3.90489C13.9076 3.30107 14.6244 2.8219 15.4131 2.49508ZM17.9013 4.00001C17.3102 4.00001 16.7248 4.11647 16.1787 4.34275C15.6326 4.56903 15.1365 4.90068 14.7186 5.31877L13.6584 6.37894C13.2679 6.76946 12.6347 6.76946 12.2442 6.37894L11.1842 5.31894C10.34 4.47478 9.19511 4.00054 8.00129 4.00054C6.80747 4.00054 5.66255 4.47478 4.8184 5.31894C3.97424 6.16309 3.5 7.30801 3.5 8.50183C3.5 9.69565 3.97424 10.8406 4.8184 11.6847L12.9513 19.8176L21.0842 11.6847C21.5023 11.2668 21.8341 10.7705 22.0604 10.2244C22.2866 9.67829 22.4031 9.09296 22.4031 8.50183C22.4031 7.91071 22.2866 7.32537 22.0604 6.77927C21.8341 6.23316 21.5024 5.73699 21.0843 5.3191C20.6665 4.90102 20.17 4.56903 19.6239 4.34275C19.0778 4.11647 18.4924 4.00001 17.9013 4.00001Z" fill="#496C83"/>
</g>
<defs>
<clipPath id="clip0_37_226811">
<rect width="24" height="24" fill="white" transform="translate(0.5)"/>
</clipPath>
</defs>
</svg>
