<svg width="25" height="24" viewBox="0 0 25 24" fill="none" xmlns="http://www.w3.org/2000/svg">
<path d="M5.5 2C3.84315 2 2.5 3.34315 2.5 5V19C2.5 20.6569 3.84315 22 5.5 22H19.5C21.1569 22 22.5 20.6569 22.5 19V5C22.5 3.34315 21.1569 2 19.5 2H5.5Z" fill="#00244D"/>
<path fill-rule="evenodd" clip-rule="evenodd" d="M12.5 7C13.0523 7 13.5 7.44772 13.5 8V16C13.5 16.5523 13.0523 17 12.5 17C11.9477 17 11.5 16.5523 11.5 16V8C11.5 7.44772 11.9477 7 12.5 7Z" fill="white"/>
<path fill-rule="evenodd" clip-rule="evenodd" d="M7.5 12C7.5 11.4477 7.94772 11 8.5 11H16.5C17.0523 11 17.5 11.4477 17.5 12C17.5 12.5523 17.0523 13 16.5 13H8.5C7.94772 13 7.5 12.5523 7.5 12Z" fill="white"/>
</svg>
