<svg width="25" height="24" viewBox="0 0 25 24" fill="none" xmlns="http://www.w3.org/2000/svg">
<path fill-rule="evenodd" clip-rule="evenodd" d="M5.5 4C4.94772 4 4.5 4.44772 4.5 5V19C4.5 19.5523 4.94772 20 5.5 20H19.5C20.0523 20 20.5 19.5523 20.5 19V5C20.5 4.44772 20.0523 4 19.5 4H5.5ZM2.5 5C2.5 3.34315 3.84315 2 5.5 2H19.5C21.1569 2 22.5 3.34315 22.5 5V19C22.5 20.6569 21.1569 22 19.5 22H5.5C3.84315 22 2.5 20.6569 2.5 19V5Z" fill="#496C83"/>
<path fill-rule="evenodd" clip-rule="evenodd" d="M12.5 7C13.0523 7 13.5 7.44772 13.5 8V16C13.5 16.5523 13.0523 17 12.5 17C11.9477 17 11.5 16.5523 11.5 16V8C11.5 7.44772 11.9477 7 12.5 7Z" fill="#496C83"/>
<path fill-rule="evenodd" clip-rule="evenodd" d="M7.5 12C7.5 11.4477 7.94772 11 8.5 11H16.5C17.0523 11 17.5 11.4477 17.5 12C17.5 12.5523 17.0523 13 16.5 13H8.5C7.94772 13 7.5 12.5523 7.5 12Z" fill="#496C83"/>
</svg>
