<svg width="23" height="22" viewBox="0 0 23 22" fill="none" xmlns="http://www.w3.org/2000/svg">
<path d="M16.4498 0.884087C15.5959 0.884087 14.7504 1.05231 13.9616 1.37916C13.1729 1.70598 12.4561 2.18515 11.8525 2.78897L11.4998 3.1417L11.1469 2.78881C9.92763 1.56958 8.274 0.884621 6.54975 0.884621C4.8255 0.884621 3.17187 1.56958 1.95265 2.78881C0.733418 4.00803 0.0484619 5.66166 0.0484619 7.38591C0.0484619 9.11016 0.733418 10.7638 1.95265 11.983L10.7926 20.823C11.1832 21.2135 11.8163 21.2135 12.2069 20.823L21.0469 11.983C21.6507 11.3794 22.1297 10.6628 22.4565 9.87406C22.7833 9.08525 22.9516 8.23976 22.9516 7.38591C22.9516 6.53206 22.7833 5.68658 22.4565 4.89777C22.1297 4.10909 21.6504 3.39219 21.0467 2.78864C20.4431 2.18489 19.7266 1.70595 18.9379 1.37916C18.1491 1.05231 17.3036 0.884087 16.4498 0.884087Z" fill="#00244D"/>
</svg>
