<svg width="71" height="49" viewBox="0 0 71 49" fill="none" xmlns="http://www.w3.org/2000/svg">
<path d="M0 0V5.02564H71V0H0Z" fill="#006BE6"/>
<path d="M4.59371 15.7053C3.81606 15.6959 3.08366 15.6871 2.3534 15.7153C1.61305 15.7456 1.32887 15.4604 1.27153 14.7107C1.12695 12.3886 3.2184 10.0513 5.50927 10.0513H14.9245V30.7991H5.85576V15.7153C5.41863 15.7153 5 15.7102 4.59371 15.7053Z" fill="#006BE6"/>
<path d="M46.3571 13.4892C46.8431 13.9579 47.3299 14.4274 47.7693 14.9353C48.1861 15.4229 48.4331 16.0358 48.4722 16.6795C48.5076 19.5803 48.5079 22.4822 48.5081 25.3844C48.5083 27.1886 48.5085 28.9948 48.5171 30.7991C48.5382 31.2573 48.4539 31.7142 48.2709 32.1338C48.0879 32.5534 47.8112 32.9242 47.4626 33.2171C46.5295 33.9875 45.6751 34.8508 44.9125 35.7942C43.7285 37.3692 42.2652 37.7958 40.3757 37.6797C38.6244 37.5725 36.8659 37.5962 35.0648 37.6205C34.2794 37.6311 33.485 37.6418 32.6804 37.6418V32.1066H39.3561V10.1472C39.7044 10.1431 40.0492 10.1213 40.3887 10.0998C41.9207 10.0028 43.3458 9.91264 44.4987 11.485C45.036 12.2152 45.6959 12.8516 46.3571 13.4892Z" fill="#006BE6"/>
<path d="M37.1327 15.69C37.8806 15.7102 38.1722 15.4376 38.1448 14.6804C38.1049 13.4638 38.1124 12.2422 38.1448 11.0256C38.1647 10.3037 37.8756 10.0639 37.1851 10.0689C35.9356 10.0786 34.6865 10.0769 33.4377 10.0752C31.7393 10.0728 30.0411 10.0705 28.3432 10.0967C27.8639 10.1346 27.4114 10.3357 27.0594 10.6672C25.5837 12.0705 24.1354 13.5294 22.7419 15.0262C22.4002 15.4247 22.204 15.9299 22.186 16.4574C22.1495 21.3742 22.1578 26.292 22.2109 31.2105C22.2386 31.7782 22.4547 32.3198 22.8242 32.7477C24.1578 34.1947 25.5613 35.5762 26.9682 36.9611L27.0469 37.0386C27.3221 37.3394 27.6842 37.5443 28.0814 37.6242C28.8093 37.6797 29.5409 37.6704 30.3282 37.6603C30.6491 37.6562 30.9792 37.6519 31.3221 37.6519V35.6781C31.3221 33.6055 31.3254 31.5314 31.3287 29.4584C31.3354 25.3114 31.342 21.164 31.3221 17.0177C31.3221 15.9828 31.6137 15.6118 32.6607 15.6698C33.4659 15.7097 34.2762 15.6987 35.0881 15.6877C35.7692 15.6785 36.4516 15.6693 37.1327 15.69Z" fill="#006BE6"/>
<path d="M52.7824 15.6774C53.5473 15.6354 54.3146 15.6444 55.1177 15.6539C55.4712 15.658 55.8322 15.6623 56.2025 15.6623V17.2221C56.2025 18.5949 56.2066 19.9676 56.2108 21.3407V21.3419C56.2191 24.0888 56.2274 26.8372 56.2025 29.5901C56.2025 30.5467 56.4518 30.9303 57.4489 30.8975C58.9241 30.8511 60.3993 30.857 61.8744 30.8629C62.6428 30.866 63.4111 30.869 64.1794 30.8647C64.4165 30.8647 64.6526 30.833 64.8987 30.7999C65.0199 30.7836 65.1438 30.767 65.2712 30.7537V10.1573C65.0954 10.1492 64.9293 10.14 64.7703 10.1312C64.4356 10.1127 64.132 10.0959 63.8329 10.0942H55.9881C53.6524 10.0942 51.6557 12.174 51.6457 14.5138C51.6507 15.3796 51.9024 15.7228 52.7824 15.6774Z" fill="#006BE6"/>
<path d="M51.8001 37.5484V32.1596H69.7357V37.5484H51.8001Z" fill="#006BE6"/>
<path d="M19.384 37.5636H1.43593V32.1141H19.384V37.5636Z" fill="#006BE6"/>
<path d="M0 47.7489V42.7233H71V47.7489H0Z" fill="#006BE6"/>
</svg>
