<svg width="24" height="24" viewBox="0 0 24 24" fill="none" xmlns="http://www.w3.org/2000/svg">
<path d="M0.702944 0.702944C1.15303 0.252857 1.76348 0 2.4 0H5.6C6.04183 0 6.4 0.358172 6.4 0.8C6.4 1.24183 6.04183 1.6 5.6 1.6H2.4C2.18783 1.6 1.98434 1.68429 1.83431 1.83431C1.68429 1.98434 1.6 2.18783 1.6 2.4V5.6C1.6 6.04183 1.24183 6.4 0.8 6.4C0.358172 6.4 0 6.04183 0 5.6V2.4C0 1.76348 0.252857 1.15303 0.702944 0.702944Z" fill="#00244D"/>
<path d="M13.6 4.8C13.1582 4.8 12.8 5.15817 12.8 5.6V8.8C12.8 9.24183 13.1582 9.6 13.6 9.6H18.4C18.8418 9.6 19.2 9.24183 19.2 8.8C19.2 8.35817 18.8418 8 18.4 8H14.4V6.4H18.4C18.8418 6.4 19.2 6.04183 19.2 5.6C19.2 5.15817 18.8418 4.8 18.4 4.8H13.6Z" fill="#00244D"/>
<path d="M12 11.2C11.5582 11.2 11.2 11.5582 11.2 12V17.6H9.6V13.6C9.6 13.1582 9.24183 12.8 8.8 12.8C8.35817 12.8 8 13.1582 8 13.6V18.4C8 18.8418 8.35817 19.2 8.8 19.2H12C12.4418 19.2 12.8 18.8418 12.8 18.4V12.8H18.4C18.8418 12.8 19.2 12.4418 19.2 12C19.2 11.5582 18.8418 11.2 18.4 11.2H12Z" fill="#00244D"/>
<path d="M5.6 12.8C6.04183 12.8 6.4 13.1582 6.4 13.6V18.4C6.4 18.8418 6.04183 19.2 5.6 19.2C5.15817 19.2 4.8 18.8418 4.8 18.4V13.6C4.8 13.1582 5.15817 12.8 5.6 12.8Z" fill="#00244D"/>
<path d="M17.6 0.8C17.6 0.358172 17.9582 0 18.4 0H21.6C22.2365 0 22.847 0.252857 23.2971 0.702944C23.7471 1.15303 24 1.76348 24 2.4V5.6C24 6.04183 23.6418 6.4 23.2 6.4C22.7582 6.4 22.4 6.04183 22.4 5.6V2.4C22.4 2.18783 22.3157 1.98434 22.1657 1.83431C22.0157 1.68429 21.8122 1.6 21.6 1.6H18.4C17.9582 1.6 17.6 1.24183 17.6 0.8Z" fill="#00244D"/>
<path d="M23.2 17.6C23.6418 17.6 24 17.9582 24 18.4V21.6C24 22.2365 23.7471 22.847 23.2971 23.2971C22.847 23.7471 22.2365 24 21.6 24H18.4C17.9582 24 17.6 23.6418 17.6 23.2C17.6 22.7582 17.9582 22.4 18.4 22.4H21.6C21.8122 22.4 22.0157 22.3157 22.1657 22.1657C22.3157 22.0157 22.4 21.8122 22.4 21.6V18.4C22.4 17.9582 22.7582 17.6 23.2 17.6Z" fill="#00244D"/>
<path d="M0.8 17.6C1.24183 17.6 1.6 17.9582 1.6 18.4V21.6C1.6 21.8122 1.68429 22.0157 1.83431 22.1657C1.98434 22.3157 2.18783 22.4 2.4 22.4H5.6C6.04183 22.4 6.4 22.7582 6.4 23.2C6.4 23.6418 6.04183 24 5.6 24H2.4C1.76348 24 1.15303 23.7471 0.702944 23.2971C0.252857 22.847 0 22.2365 0 21.6V18.4C0 17.9582 0.358172 17.6 0.8 17.6Z" fill="#00244D"/>
<path fill-rule="evenodd" clip-rule="evenodd" d="M4.8 5.6C4.8 5.15817 5.15817 4.8 5.6 4.8H10.4C10.8418 4.8 11.2 5.15817 11.2 5.6V10.4C11.2 10.8418 10.8418 11.2 10.4 11.2H5.6C5.15817 11.2 4.8 10.8418 4.8 10.4V5.6ZM6.4 6.4V9.6H9.6V6.4H6.4Z" fill="#00244D"/>
<path fill-rule="evenodd" clip-rule="evenodd" d="M14.4 15.2C14.4 14.7582 14.7582 14.4 15.2 14.4H18.4C18.8418 14.4 19.2 14.7582 19.2 15.2V18.4C19.2 18.8418 18.8418 19.2 18.4 19.2H15.2C14.7582 19.2 14.4 18.8418 14.4 18.4V15.2ZM16 16V17.6H17.6V16H16Z" fill="#00244D"/>
</svg>
