<svg width="90" height="90" viewBox="0 0 90 90" fill="none" xmlns="http://www.w3.org/2000/svg">
<path d="M7.31578 23.3551C6.07915 22.6327 5.66231 21.0446 6.38473 19.8079C13.3139 7.94667 27.2813 -8.84574e-06 43.1998 0C59.1183 0 73.0856 7.94668 80.0148 19.8079C80.7373 21.0446 80.3204 22.6327 79.0838 23.3551C77.8472 24.0775 76.259 23.6607 75.5366 22.4241C69.6191 12.2946 57.443 5.18638 43.1998 5.18638C28.9566 5.18638 16.7805 12.2946 10.863 22.4241C10.1405 23.6607 8.55241 24.0775 7.31578 23.3551Z" fill="#006BE6"/>
<path d="M68.0157 30.8449C66.7345 31.485 65.177 30.9654 64.5369 29.6842C60.5534 21.7114 52.4749 16.3001 43.1994 16.3001C33.9239 16.3001 25.8455 21.7114 21.862 29.6842C21.2218 30.9654 19.6643 31.485 18.3832 30.8449C17.102 30.2048 16.5823 28.6473 17.2224 27.3661C22.0288 17.7463 31.838 11.1137 43.1994 11.1137C54.5609 11.1137 64.37 17.7463 69.1764 27.3661C69.8165 28.6473 69.2968 30.2048 68.0157 30.8449Z" fill="#006BE6"/>
<path fill-rule="evenodd" clip-rule="evenodd" d="M43.1998 41.4912C47.9737 41.4912 51.8438 37.6211 51.8438 32.8472C51.8438 28.0732 47.9737 24.2032 43.1998 24.2032C38.4258 24.2032 34.5558 28.0732 34.5558 32.8472C34.5558 37.6211 38.4258 41.4912 43.1998 41.4912ZM43.1998 37.1692C45.5867 37.1692 47.5218 35.2341 47.5218 32.8472C47.5218 30.4602 45.5867 28.5252 43.1998 28.5252C40.8128 28.5252 38.8778 30.4602 38.8778 32.8472C38.8778 35.2341 40.8128 37.1692 43.1998 37.1692Z" fill="#006BE6"/>
<path d="M80.663 52.6246C79.5219 52.4171 78.3809 52.3134 77.2399 52.3134C75.0271 52.3134 72.9352 52.7456 70.9644 53.61C69.0282 54.4744 67.3166 55.7364 65.8299 57.3961C64.3777 59.0211 63.2194 61.0093 62.355 63.3604C61.5252 65.7116 61.1103 68.3912 61.1103 71.3993C61.1103 74.4074 61.577 77.0525 62.5106 79.3345C63.4441 81.5819 64.6543 83.4663 66.1411 84.9877C67.6624 86.4744 69.3739 87.5982 71.2756 88.3588C73.2118 89.1195 75.1481 89.4998 77.0843 89.4998C78.8477 89.4998 80.4382 89.327 81.8558 88.9812C83.2734 88.6009 84.4836 88.1341 85.4863 87.5809C86.5236 86.9931 87.3015 86.3534 87.8202 85.6619C88.3734 84.9358 88.65 84.227 88.65 83.5355C88.65 82.7057 88.4771 82.1352 88.1314 81.824C87.7856 81.4782 87.3188 81.3053 86.731 81.3053C86.247 81.3053 85.7456 81.4609 85.227 81.7721C84.7083 82.0833 84.086 82.4291 83.3599 82.8094C82.6684 83.1897 81.8212 83.5355 80.8185 83.8467C79.8158 84.1579 78.5711 84.3134 77.0843 84.3134C75.8396 84.3134 74.5949 84.0541 73.3501 83.5355C72.14 82.9823 71.0508 82.1697 70.0827 81.0979C69.1146 79.9914 68.3193 78.5911 67.697 76.8969C67.1092 75.2027 66.8153 73.18 66.8153 70.8288C66.8153 68.9272 67.0746 67.1638 67.5933 65.5387C68.1119 63.9136 68.8034 62.5133 69.6678 61.3377C70.5668 60.1276 71.6041 59.194 72.7796 58.5371C73.9898 57.8456 75.2518 57.4998 76.5657 57.4998C77.8796 57.4998 78.9342 57.6035 79.7294 57.811C80.5247 57.9839 81.1989 58.1913 81.7521 58.4334C82.3399 58.6754 82.8585 58.9001 83.308 59.1076C83.7575 59.2805 84.2761 59.3669 84.8639 59.3669C85.4863 59.3669 86.0049 59.1594 86.4198 58.7445C86.8348 58.3296 87.0422 57.7245 87.0422 56.9293C87.0422 56.1686 86.731 55.5117 86.1087 54.9585C85.5209 54.3707 84.7602 53.8866 83.8267 53.5063C82.8931 53.0914 81.8385 52.7975 80.663 52.6246Z" fill="#006BE6"/>
<path d="M36.4688 64.9163C36.4688 62.012 36.5726 59.7472 36.78 58.1222C36.9875 56.4625 37.4197 55.2178 38.0766 54.388C38.7336 53.5581 39.6671 53.0568 40.8773 52.8839C42.0874 52.6765 43.6779 52.5727 45.6487 52.5727H48.6568C49.5558 52.5727 50.4202 52.59 51.25 52.6246C52.1144 52.6246 52.9616 52.6419 53.7914 52.6765C54.6558 52.711 55.5893 52.7456 56.592 52.7802C57.4218 52.8493 58.0615 52.9531 58.511 53.0914C58.9605 53.1951 59.3062 53.3507 59.5483 53.5581C59.7903 53.7656 59.9286 54.0076 59.9632 54.2842C60.0323 54.5608 60.0669 54.872 60.0669 55.2178C60.0669 55.8402 59.8422 56.3588 59.3927 56.7737C58.9778 57.1886 58.0615 57.4307 56.6439 57.4998C55.7795 57.5344 54.9324 57.569 54.1026 57.6035C53.3073 57.6381 52.391 57.6727 51.3538 57.7073C50.3511 57.7073 49.2101 57.7245 47.9308 57.7591H43.3149C42.6925 57.7591 42.2603 57.9839 42.0183 58.4334C41.7762 58.8483 41.6552 59.3842 41.6552 60.0411V61.597C41.6898 62.1157 41.7071 62.6862 41.7071 63.3086C41.7417 63.9309 41.7589 64.6397 41.7589 65.435C41.7935 66.1956 41.8108 67.0946 41.8108 68.1319C43.0901 68.1319 44.1966 68.1492 45.1301 68.1838C46.0982 68.1838 46.9281 68.2011 47.6196 68.2356C48.3457 68.2356 48.9853 68.2529 49.5385 68.2875C50.0918 68.3221 50.6277 68.3567 51.1463 68.3912C52.5639 68.4604 53.4802 68.7024 53.8951 69.1173C54.3446 69.5322 54.5693 70.0509 54.5693 70.6732C54.5693 71.019 54.5348 71.3302 54.4656 71.6068C54.431 71.8834 54.2927 72.1254 54.0507 72.3329C53.8087 72.5403 53.4629 72.7132 53.0134 72.8515C52.5639 72.9898 51.9243 73.0936 51.0944 73.1627C50.5412 73.1973 50.0053 73.2319 49.4867 73.2664C49.0026 73.2664 48.4148 73.2837 47.7233 73.3183H41.8108C41.7762 75.3929 41.7589 77.5193 41.7589 79.6976C41.7935 81.8413 41.7417 84.0541 41.6034 86.3361C41.5342 87.6846 41.2922 88.5144 40.8773 88.8256C40.4969 89.1022 39.9091 89.2405 39.1139 89.2405C38.3532 89.2405 37.7827 89.0849 37.4024 88.7737C37.022 88.428 36.7973 87.6327 36.7281 86.388C36.659 85.2816 36.6071 84.0714 36.5726 82.7575C36.5726 81.4091 36.5553 79.8877 36.5207 78.1935C36.4861 76.4647 36.4688 74.5285 36.4688 72.3848V64.9163Z" fill="#006BE6"/>
<path d="M24.2881 86.5955C23.1817 85.0741 22.1271 83.5701 21.1244 82.0833C20.1563 80.562 19.1017 78.9023 17.9607 77.1044C16.8543 75.3064 15.575 73.3183 14.1228 71.14C12.7052 68.9272 10.9937 66.3512 8.98825 63.4123V70.4139C8.98825 72.4539 8.97097 74.3556 8.93639 76.1189C8.90181 77.8823 8.86724 79.542 8.83266 81.0979C8.79809 82.6538 8.74622 84.2097 8.67707 85.7656C8.6425 86.5955 8.55606 87.2351 8.41775 87.6846C8.31402 88.1341 8.15843 88.4798 7.95098 88.7219C7.74352 88.9639 7.50149 89.1022 7.22488 89.1368C6.98285 89.2059 6.68895 89.2405 6.3432 89.2405C5.72083 89.2405 5.20219 89.0331 4.78728 88.6181C4.37237 88.1687 4.13034 87.2351 4.06118 85.8175C3.8883 82.0141 3.78458 78.2108 3.75 74.4074V62.5306C3.75 60.214 3.76729 58.3988 3.80186 57.0849C3.87102 55.771 3.99203 54.7856 4.16491 54.1287C4.37237 53.4717 4.63169 53.0568 4.94287 52.8839C5.28863 52.711 5.73812 52.6246 6.29133 52.6246C6.84455 52.6246 7.57064 53.0568 8.46961 53.9212C9.36859 54.751 10.354 55.8574 11.4259 57.2405C12.4977 58.6235 13.6387 60.214 14.8489 62.012C16.0936 63.8099 17.3211 65.6597 18.5312 67.5614C19.7414 69.4631 20.8997 71.3475 22.0061 73.2146C23.1471 75.0817 24.1844 76.7759 25.1179 78.2972C25.0834 76.6722 25.0661 74.8915 25.0661 72.9553V66.4204C25.0661 63.6889 25.0834 61.4415 25.1179 59.6781C25.1525 57.8801 25.2389 56.4625 25.3772 55.4252C25.5501 54.388 25.8094 53.6619 26.1552 53.247C26.501 52.8321 26.985 52.6246 27.6074 52.6246C28.1952 52.6246 28.7138 52.8148 29.1633 53.1951C29.6128 53.5754 29.8721 54.4571 29.9413 55.8402C30.0104 57.0849 30.0623 58.1913 30.0969 59.1594L30.2006 62.0638C30.2352 62.9974 30.2525 63.9828 30.2525 65.0201V72.9034C30.2525 74.321 30.2352 75.7213 30.2006 77.1044L30.0969 81.3053C30.0623 82.7229 30.0104 84.2097 29.9413 85.7656C29.9067 86.5955 29.8203 87.2351 29.682 87.6846C29.5782 88.1341 29.4226 88.4798 29.2152 88.7219C29.0077 88.9639 28.7657 89.1022 28.4891 89.1368C28.2471 89.2059 27.9532 89.2405 27.6074 89.2405C27.0196 89.2405 26.5183 89.0676 26.1033 88.7219C25.6884 88.3761 25.0834 87.6673 24.2881 86.5955Z" fill="#006BE6"/>
</svg>
