<svg width="56" height="39" viewBox="0 0 56 39" fill="none" xmlns="http://www.w3.org/2000/svg">
<path d="M0 0V4.17678H56V0H0Z" fill="white"/>
<path d="M2.67183 12.901C2.04447 12.8921 1.45944 12.8839 0.86577 12.9105C0.281879 12.9512 0.0402684 12.7071 0 12.1171L3.42281 8.35357H11.0335V25.076H3.70469V12.9105C3.34396 12.9105 3.00173 12.9057 2.67183 12.901Z" fill="white"/>
<path d="M29.7986 12.0764C29.8187 12.6867 29.5771 12.9105 28.9731 12.8902C28.4362 12.8811 27.8993 12.8882 27.3624 12.8952C26.6913 12.904 26.0201 12.9128 25.349 12.8902C24.5033 12.8291 24.2617 13.1343 24.2617 13.9684C24.2751 17.3027 24.2707 20.6461 24.2662 23.9864V24.0217C24.2639 25.6831 24.2617 27.3438 24.2617 29.0023V30.5891C23.9847 30.5891 23.7163 30.5926 23.4545 30.596C22.822 30.6042 22.2281 30.6119 21.6443 30.5687C21.3624 30.5484 21.0402 30.3246 20.8188 30.1008C20.6558 29.939 20.4924 29.7772 20.3288 29.6153C19.341 28.6372 18.3489 27.6547 17.4161 26.6424C17.1141 26.3373 16.9127 25.8287 16.9127 25.4015C16.8725 21.4548 16.8725 17.4878 16.8926 13.5208C16.8926 13.114 17.0738 12.6461 17.3355 12.3612C18.4631 11.161 19.6308 9.98105 20.859 8.84181C21.1208 8.57735 21.5436 8.37391 21.8859 8.37391C23.2553 8.35066 24.6182 8.35399 25.9783 8.35731C26.9977 8.3598 28.0156 8.36228 29.0335 8.35357C29.5771 8.35357 29.8187 8.557 29.7986 9.12662C29.7785 10.1031 29.7583 11.0999 29.7986 12.0764Z" fill="white"/>
<path d="M37.5503 12.3002C37.212 11.9178 36.8416 11.5614 36.4711 11.205C35.9154 10.6703 35.3597 10.1357 34.9127 9.51315C33.9717 8.24543 32.8276 8.31806 31.5915 8.39653C31.3201 8.41376 31.0442 8.43128 30.7651 8.43494V26.1338H25.3892V30.5891C26.0225 30.5891 26.6487 30.5801 27.2694 30.5712C28.7404 30.5502 30.1806 30.5296 31.6107 30.6297C33.1409 30.7315 34.3288 30.3856 35.2751 29.104C35.822 28.38 36.5101 27.763 37.1906 27.1529L37.3288 27.0289C37.9328 26.5 38.1946 25.8897 38.1744 25.076C38.1669 23.6576 38.1678 22.2359 38.1688 20.814V20.8106C38.1703 18.4404 38.1719 16.0681 38.1342 13.7039C38.1342 13.2157 37.8724 12.6461 37.5503 12.3002Z" fill="white"/>
<path d="M41.5972 12.8902C42.2587 12.8598 42.9314 12.8634 43.6321 12.8672C43.8698 12.8685 44.1109 12.8698 44.3556 12.8698V14.1311C44.3556 15.2357 44.3579 16.3403 44.3601 17.4456C44.3646 19.6586 44.3691 21.8745 44.3556 24.0995C44.3556 24.8725 44.557 25.1777 45.3623 25.1573C46.6567 25.1137 47.951 25.1221 49.2454 25.1304L49.2466 25.1304C49.7639 25.1337 50.2813 25.137 50.7986 25.137C50.9598 25.137 51.121 25.117 51.2898 25.0961C51.416 25.0805 51.5467 25.0643 51.6845 25.0556V8.47563L51.4806 8.46609C51.1272 8.44938 50.822 8.43495 50.5167 8.43495H44.1744C43.5556 8.43495 40.4444 11.7669 40.6711 11.9951C40.6912 12.6461 40.8926 12.9309 41.5972 12.8902Z" fill="white"/>
<path d="M40.812 30.5077V26.1745H55.3086V30.5077H40.812Z" fill="white"/>
<path d="M14.6376 30.528H0.14094V26.1338H14.6376V30.528Z" fill="white"/>
<path d="M0 39V34.8232H56V39H0Z" fill="white"/>
</svg>
