<svg width="582" height="565" viewBox="0 0 582 565" fill="none" xmlns="http://www.w3.org/2000/svg">
<path d="M143.029 1.69592C169.892 1.69592 171.479 21.3614 171.611 31.2802C171.715 39.4773 171.242 38.0178 171.326 39.5C171.326 39.5 175.425 39.5954 174.729 45.5389C174.622 48.3226 174.033 53.89 172.307 57.0216C171.065 59.2757 169.802 59.0834 169.802 59.0834C167.839 66.0004 164.869 71.8138 160.714 76.5074C160.714 76.5074 161.062 103.3 163.239 104.47C169.356 109.208 196.114 113.423 202.565 118.716" stroke="#496C83" stroke-linecap="round" stroke-linejoin="round"/>
<path d="M144.394 1.69592C117.532 1.69592 115.945 21.3614 115.813 31.2802C115.709 39.4773 116.182 38.0178 116.098 39.5C116.098 39.5 111.999 39.5954 112.695 45.5389C112.802 48.3226 113.391 53.89 115.117 57.0216C116.359 59.2757 117.622 59.0834 117.622 59.0834C119.585 66.0004 122.555 71.8138 126.71 76.5074C126.71 76.5074 126.362 103.3 124.185 104.47C118.068 109.208 91.3096 113.423 84.8584 118.716" stroke="#496C83" stroke-linecap="round" stroke-linejoin="round"/>
<path d="M68.5387 327.002C68.5387 327.002 69.6521 329.375 75.1708 333.65C80.5711 337.842 76.6671 340.11 72.5124 337.677C71.6912 337.191 69.8819 335.813 68.2743 334.548C69.0885 336.255 71.0023 340.2 73.2083 341.892C80.3346 347.372 75.6232 351.317 71.6634 347.746M59.4569 332.969C59.4569 332.153 58.5592 330.858 57.5362 327.422C57.1604 326.172 58.3992 315.953 58.4548 315.646C59.7493 308.565 62.338 295.637 63.4515 290.127C63.3541 289.521 63.2845 288.877 63.2636 288.181C62.8321 275.462 60.981 240.121 64.0848 219.086C70.536 175.353 68.4274 154.437 73.7233 136.913C76.2565 128.529 80.2928 122.383 84.9067 118.894" stroke="#496C83" stroke-miterlimit="10" stroke-linecap="round"/>
<path d="M72.3316 321.74C70.1951 323.484 67.133 326.351 67.3905 328.597C67.5506 330.027 66.1309 337.311 66.6668 338.695C66.9521 339.422 71.5312 344.437 71.8096 347.147C72.1437 350.441 68.0168 351.257 66.1309 348.524C65.4419 347.521 61.4195 344.108 60.2573 340.664C59.3179 337.872 59.8189 327.916 59.457 324.36" stroke="#496C83" stroke-miterlimit="10" stroke-linecap="round"/>
<path d="M78.2398 288.622C78.0659 296.048 83.8211 300.645 80.4111 312.929C79.7987 315.137 79.423 323.492 79.59 325.85C79.764 328.283 81.6359 332.609 77.9475 333.006C76.159 333.199 74.1687 332.782 73.0135 326.965C72.6307 325.049 72.2062 317.967 71.2876 315.751" stroke="#496C83" stroke-miterlimit="10" stroke-linecap="round"/>
<path d="M94.5659 167.373C96.9181 164.948 97.3636 158.255 96.8904 154.759" stroke="#496C83" stroke-miterlimit="10" stroke-linecap="round"/>
<path d="M96.0891 171.501C96.0891 171.501 91.5656 203.165 88.4339 221.259C90.5217 242.832 77.9951 267.19 77.9951 288.415" stroke="#496C83" stroke-miterlimit="10" stroke-linecap="round"/>
<path d="M88.4336 221.607C88.4336 221.607 87.0417 216.388 85.6499 214.648" stroke="#496C83" stroke-miterlimit="10" stroke-linecap="round"/>
<path d="M143.963 307.293C145.097 335.867 153.803 386.052 154.276 397.58C154.924 413.331 160.018 419.454 160.06 425.555C160.06 425.705 160.025 425.847 160.018 425.997C157.596 453.238 162.433 473.809 163.643 481.423C164.833 488.916 173.101 510.146 168.243 531.099C168.014 532.087 167.617 533.06 167.485 534.168C166.385 543.204 165.766 556.117 166.163 560.376C166.559 564.636 173.066 563.423 180.401 563.146C186.484 562.922 194.772 563.805 195.698 560.242C197.778 552.232 190.513 546.46 188.432 536.474C188.077 534.782 187.367 533.382 187.02 531.982C185.669 526.533 186.797 521.742 186.665 514.128C186.546 507.331 189.914 472.424 189.901 460.267C189.894 448.544 190.59 445.61 189.887 432.008C189.699 428.422 190.054 417.658 189.594 412.238C189.553 411.744 189.469 411.28 189.462 410.801C189.233 394.721 192.162 383.619 192.921 377.855C197.751 341.144 192.921 309.98 192.663 288.039C192.455 270.395 187.994 247.204 186.024 231.199C186.024 205.507 192.072 171.289 192.072 171.289" stroke="#496C83" stroke-miterlimit="10" stroke-linecap="round"/>
<path d="M144.06 307.293C142.926 335.867 134.22 386.052 133.746 397.58C133.099 413.331 128.005 419.454 127.963 425.555C127.963 425.705 127.998 425.847 128.005 425.997C130.427 453.238 125.59 473.809 124.379 481.422C123.189 488.916 114.922 510.146 119.779 531.099C120.009 532.087 120.406 533.06 120.538 534.168C121.637 543.204 122.257 556.117 121.86 560.376C121.464 564.636 114.957 563.423 107.622 563.146C101.539 562.921 93.2508 563.805 92.3252 560.242C90.2444 552.232 97.5099 546.46 99.5907 536.474C99.9456 534.782 100.655 533.382 101.003 531.982C102.353 526.533 101.226 521.742 101.358 514.128C101.477 507.331 98.1084 472.424 98.1223 460.267C98.1362 448.11 97.4333 445.61 98.1362 432.008C98.3241 428.422 97.9692 417.658 98.4285 412.238C98.4702 411.744 98.5537 411.28 98.5607 410.8C98.7903 394.721 95.8605 383.619 95.102 377.855C90.2723 341.144 95.102 309.98 95.3595 288.039C95.5682 270.395 100.029 247.204 101.999 231.199C101.999 205.507 96.3268 172.12 96.3268 172.12V171.289" stroke="#496C83" stroke-miterlimit="10" stroke-linecap="round"/>
<path d="M144.457 249.809C142.397 249.809 140.72 251.261 140.72 253.05C140.72 254.839 142.39 256.299 144.457 256.299C146.524 256.299 148.194 254.847 148.194 253.05" stroke="#496C83" stroke-miterlimit="10" stroke-linecap="round"/>
<path d="M190.652 154.603C190.179 158.091 190.624 164.791 192.976 167.217" stroke="#496C83" stroke-miterlimit="10" stroke-linecap="round"/>
<path d="M219.26 327.002C219.26 327.002 218.147 329.375 212.628 333.65C207.228 337.842 211.132 340.11 215.286 337.677C216.108 337.191 217.917 335.813 219.525 334.548C218.71 336.255 216.797 340.2 214.59 341.892C207.464 347.372 212.176 351.317 216.135 347.746M228.342 332.969C228.342 332.153 229.24 330.858 230.263 327.422C230.638 326.172 229.4 315.953 229.344 315.646C228.05 308.565 225.461 295.637 224.347 290.127C224.445 289.521 224.514 288.877 224.535 288.181C224.967 275.462 226.818 240.121 223.714 219.086C217.263 175.353 219.371 154.437 214.076 136.913C211.542 128.529 207.506 122.383 202.892 118.894" stroke="#496C83" stroke-miterlimit="10" stroke-linecap="round"/>
<path d="M215.467 321.74C217.604 323.484 220.666 326.351 220.408 328.597C220.248 330.027 221.668 337.311 221.132 338.695C220.847 339.422 216.268 344.437 215.989 347.147C215.655 350.441 219.782 351.257 221.668 348.524C222.357 347.521 226.379 344.108 227.541 340.664C228.481 337.872 227.98 327.916 228.342 324.36" stroke="#496C83" stroke-miterlimit="10" stroke-linecap="round"/>
<path d="M209.559 288.622C209.733 296.048 203.978 300.645 207.388 312.929C208 315.137 208.376 323.492 208.209 325.85C208.035 328.283 206.163 332.609 209.851 333.006C211.64 333.199 213.63 332.782 214.785 326.965C215.168 325.049 215.593 317.967 216.511 315.751" stroke="#496C83" stroke-miterlimit="10" stroke-linecap="round"/>
<path d="M193.233 167.373C190.881 164.948 190.435 158.255 190.908 154.759" stroke="#496C83" stroke-miterlimit="10" stroke-linecap="round"/>
<path d="M191.71 171.501C191.71 171.501 196.233 203.165 199.365 221.259C197.277 242.832 209.804 267.19 209.804 288.415" stroke="#496C83" stroke-miterlimit="10" stroke-linecap="round"/>
<path d="M199.365 221.607C199.365 221.607 200.757 216.388 202.149 214.648" stroke="#496C83" stroke-miterlimit="10" stroke-linecap="round"/>
<path d="M158.424 405.111C158.027 402.356 162.391 393.583 172.503 396.802" stroke="#496C83" stroke-miterlimit="10" stroke-linecap="round"/>
<path d="M183.63 419.948C181.473 422.748 167.666 430.503 163.107 420.12" stroke="#496C83" stroke-miterlimit="10" stroke-linecap="round"/>
<path d="M114.999 396.802C125.11 393.583 129.481 402.356 129.077 405.111" stroke="#496C83" stroke-miterlimit="10" stroke-linecap="round"/>
<path d="M124.393 420.12C119.835 430.503 106.028 422.748 103.871 419.948" stroke="#496C83" stroke-miterlimit="10" stroke-linecap="round"/>
<path d="M134.095 102.546C134.366 109.171 136.106 115.654 139.196 121.418" stroke="#496C83" stroke-miterlimit="10" stroke-linecap="round"/>
<path d="M147.053 122.915C151.152 116.649 153.636 109.171 154.172 101.55" stroke="#496C83" stroke-miterlimit="10" stroke-linecap="round"/>
<path d="M123.148 119.501C125.765 121.635 129.592 121.927 132.418 120.145" stroke="#496C83" stroke-miterlimit="10" stroke-linecap="round"/>
<path d="M154.979 120.422C157.596 121.777 160.755 121.919 163.504 120.849" stroke="#496C83" stroke-miterlimit="10" stroke-linecap="round"/>
<path d="M140.881 69.3232C143.476 70.1754 146.523 70.2701 149.232 69.6073" stroke="#496C83" stroke-miterlimit="10" stroke-linecap="round"/>
<path d="M141.499 47.1742C142.256 50.9675 141.499 54.3447 141.499 54.3447C140.458 54.6746 139.7 56.0302 139.227 56.8548C138.849 57.6795 138.849 58.669 139.322 59.4937" stroke="#496C83" stroke-miterlimit="10" stroke-linecap="round"/>
<path d="M140.552 59.245C141.309 59.0806 142.161 59.245 142.729 59.656" stroke="#496C83" stroke-miterlimit="10" stroke-linecap="round"/>
<path d="M145.854 59.7397C146.422 59.2449 147.368 59.08 148.126 59.3273" stroke="#496C83" stroke-miterlimit="10" stroke-linecap="round"/>
<path d="M151.963 67.5265C151.223 66.6893 149.372 65.573 147.614 65.573C146.596 65.573 145.67 65.8521 144.56 65.7125C143.634 65.6428 142.801 65.4334 141.876 65.5032C140.858 65.573 139.747 65.9218 138.914 66.2707C138.637 66.4102 136.971 67.3172 136.786 67.3172C141.691 67.8056 146.966 67.8056 151.963 67.5265Z" stroke="#496C83" stroke-miterlimit="10"/>
<path d="M150.518 39.3883C154.625 36.3318 159.861 36.3738 163.981 39.1456" stroke="#496C83" stroke-miterlimit="10" stroke-linecap="round"/>
<path d="M152.085 42.4836C155.058 39.2158 158.848 39.2607 161.831 42.2241" stroke="#496C83" stroke-miterlimit="10" stroke-linecap="round"/>
<path d="M154.854 41.467C154.854 42.8088 155.825 43.8965 157.022 43.8965C158.22 43.8965 159.19 42.8088 159.19 41.467C159.19 40.1253 158.22 40.0093 157.022 40.0093C155.825 40.0093 154.854 40.1253 154.854 41.467Z" fill="#496C83"/>
<path d="M125.222 39.3883C129.329 36.3318 134.565 36.3738 138.685 39.1456" stroke="#496C83" stroke-miterlimit="10" stroke-linecap="round"/>
<path d="M126.789 42.4836C129.762 39.2158 133.552 39.2607 136.535 42.2241" stroke="#496C83" stroke-miterlimit="10" stroke-linecap="round"/>
<path d="M129.558 41.467C129.558 42.8088 130.529 43.8965 131.726 43.8965C132.924 43.8965 133.895 42.8088 133.895 41.467C133.895 40.1253 132.924 40.0093 131.726 40.0093C130.529 40.0093 129.558 40.1253 129.558 41.467Z" fill="#496C83"/>
<path d="M126.362 76.1595C131.015 82.2723 141.041 83.3098 144.456 83.0925" stroke="#496C83" stroke-miterlimit="10" stroke-linecap="round"/>
<path d="M176.72 563.106C182.524 563.106 179.951 557.786 178.389 554.769" stroke="#496C83" stroke-miterlimit="10" stroke-linecap="round"/>
<path d="M180.547 560.384C181.524 563.774 183.048 563.024 185.112 562.998C187.06 562.973 187.647 559.526 186.746 558.524C185.846 557.522 185.992 557.528 184.905 555.518" stroke="#496C83" stroke-miterlimit="10" stroke-linecap="round"/>
<path d="M167.673 562.63C168.717 563.687 170.822 563.399 172.293 563.378C174.648 563.343 174.983 558.546 174.294 557.305C173.604 556.064 172.658 555.789 172.293 553.272" stroke="#496C83" stroke-miterlimit="10" stroke-linecap="round"/>
<path d="M189.247 563.004C194.845 563.004 192.364 558.705 190.856 556.267" stroke="#496C83" stroke-miterlimit="10" stroke-linecap="round"/>
<path d="M111.303 563.106C105.499 563.106 108.072 557.786 109.634 554.769" stroke="#496C83" stroke-miterlimit="10" stroke-linecap="round"/>
<path d="M107.476 560.384C106.499 563.774 104.975 563.024 102.911 562.998C100.963 562.973 100.376 559.526 101.277 558.524C102.177 557.522 102.031 557.528 103.118 555.518" stroke="#496C83" stroke-miterlimit="10" stroke-linecap="round"/>
<path d="M120.35 562.63C119.306 563.687 117.201 563.399 115.73 563.378C113.375 563.343 113.04 558.546 113.729 557.305C114.419 556.064 115.365 555.789 115.73 553.272" stroke="#496C83" stroke-miterlimit="10" stroke-linecap="round"/>
<path d="M98.7764 563.004C93.1775 563.004 95.659 558.705 97.1665 556.267" stroke="#496C83" stroke-miterlimit="10" stroke-linecap="round"/>
<path d="M404.123 334.178C411.333 335.374 420.462 335.209 428.321 332.415C432.52 330.92 437.722 326.049 437.722 319.84" stroke="#496C83" stroke-miterlimit="10" stroke-linecap="round"/>
<path d="M437.75 319.84C437.75 326.049 442.945 330.92 447.15 332.415C455.009 335.209 464.138 335.381 471.349 334.178" stroke="#496C83" stroke-miterlimit="10" stroke-linecap="round"/>
<path d="M474.92 562.812C477.605 562.819 478.323 561.37 483.191 561.37C488.902 561.37 491.615 554.563 490.862 552.479C487.605 543.453 481.134 541.45 479.55 530.138" stroke="#496C83" stroke-miterlimit="10" stroke-linecap="round"/>
<path d="M437.959 322.081C439.096 350.601 447.82 385.001 448.294 396.507C448.943 412.227 454.047 418.339 454.089 424.429C454.089 424.578 454.054 424.72 454.047 424.87C451.621 452.059 456.467 472.591 457.681 480.19C458.894 487.789 464.787 510.689 462.988 531.267C462.646 535.182 459.187 536.796 459.877 541.809C460.512 546.442 458.511 552.195 458.511 554.87C458.511 560.832 462.186 564 468.894 564C470.666 564 476.001 562.812 478.26 559.749" stroke="#496C83" stroke-miterlimit="10" stroke-linecap="round"/>
<path d="M474.411 416.075C473.316 419.169 472.946 421.686 472.96 425.803" stroke="#496C83" stroke-miterlimit="10" stroke-linecap="round"/>
<path d="M477.193 546.725C478.016 546.045 479.802 543.901 479.802 542.295C479.802 541.316 479.097 537.998 479.097 537.976C479.209 536.474 480.813 517.19 480.736 512.826C480.618 506.042 483.993 471.201 483.979 459.067C483.972 447.367 484.669 444.438 483.965 430.862C483.777 427.283 484.132 416.539 483.672 411.129C483.63 410.636 483.546 410.173 483.54 409.694C483.309 393.645 486.245 382.565 487.005 376.811C488.736 363.706 489.229 351.309 489.136 339.788C488.839 320.128 486.907 300.679 486.747 287.166C486.538 269.555 482.068 246.408 480.094 230.434C480.094 204.791 486.155 170.638 486.155 170.638" stroke="#496C83" stroke-miterlimit="10" stroke-linecap="round"/>
<path d="M462.646 417.921C464.097 420.962 464.571 423.472 464.529 427.604" stroke="#496C83" stroke-miterlimit="10" stroke-linecap="round"/>
<path d="M400.986 562.812C398.301 562.819 397.583 561.37 392.715 561.37C387.004 561.37 384.291 554.563 385.044 552.479C388.301 543.453 394.773 541.45 396.356 530.138" stroke="#496C83" stroke-miterlimit="10" stroke-linecap="round"/>
<path d="M437.947 322.081C436.811 350.601 428.086 385.001 427.612 396.507C426.964 412.227 421.859 418.339 421.817 424.429C421.817 424.578 421.852 424.72 421.859 424.87C424.286 452.059 419.439 472.591 418.226 480.19C417.012 487.789 411.119 510.689 412.919 531.267C413.26 535.182 416.719 536.796 416.029 541.809C415.394 546.442 417.396 552.195 417.396 554.87C417.396 560.832 413.72 564 407.012 564C405.24 564 399.906 562.812 397.646 559.749" stroke="#496C83" stroke-miterlimit="10" stroke-linecap="round"/>
<path d="M401.495 416.075C402.59 419.169 402.96 421.686 402.946 425.803" stroke="#496C83" stroke-miterlimit="10" stroke-linecap="round"/>
<path d="M398.713 546.725C397.89 546.045 396.105 543.901 396.105 542.295C396.105 541.316 396.809 537.998 396.809 537.976C396.697 536.474 395.093 517.19 395.17 512.826C395.289 506.042 391.914 471.201 391.927 459.067C391.934 447.367 391.237 444.438 391.941 430.862C392.13 427.283 391.774 416.539 392.234 411.129C392.276 410.636 392.36 410.173 392.367 409.694C392.597 393.645 389.661 382.565 388.901 376.811C387.17 363.706 386.677 351.309 386.77 339.788C387.068 320.128 389 300.679 389.159 287.166C389.368 269.555 393.838 246.408 395.812 230.434C395.812 204.791 389.752 170.638 389.752 170.638" stroke="#496C83" stroke-miterlimit="10" stroke-linecap="round"/>
<path d="M413.26 417.921C411.81 420.962 411.335 423.472 411.377 427.604" stroke="#496C83" stroke-miterlimit="10" stroke-linecap="round"/>
<path d="M450.881 280.486C448.901 283.049 444.633 286.269 441.634 290.521C441.111 291.268 441.042 293.913 441.042 293.913" stroke="#496C83" stroke-miterlimit="10" stroke-linecap="round"/>
<path d="M434.186 293.906C434.186 293.906 434.123 291.261 433.593 290.513C430.595 286.262 426.334 283.042 424.346 280.479" stroke="#496C83" stroke-miterlimit="10" stroke-linecap="round"/>
<path d="M438.161 309.223C437.359 314.513 437.966 322.081 437.91 323.202" stroke="#496C83" stroke-miterlimit="10" stroke-linecap="round"/>
<path d="M455.597 173.469C452.74 172.402 448.877 169.053 447.919 163.801C447.594 161.988 447.351 161.041 447.684 160.593" stroke="#496C83" stroke-miterlimit="10" stroke-linecap="round"/>
<path d="M428.709 160.6C429.042 161.048 428.799 161.995 428.473 163.808C427.516 169.06 423.653 172.402 420.796 173.477" stroke="#496C83" stroke-miterlimit="10" stroke-linecap="round"/>
<path d="M438.134 161.898C438.134 171.386 438.134 186.712 438.134 191.026" stroke="#496C83" stroke-miterlimit="10" stroke-linecap="round"/>
<path d="M365.445 340.923C367.103 343.505 370.847 344.788 368.356 348.106C367.48 349.268 362.413 347.385 359.801 344.75C358.94 343.885 354.983 340.27 353.795 336.778C352.834 333.945 352.542 331.812 352.542 331.812" stroke="#496C83" stroke-miterlimit="10" stroke-linecap="round"/>
<path d="M366.066 330.078C365.373 338.4 371.614 336.667 371.614 340.923C371.614 343.352 367.984 343.558 365.373 340.923" stroke="#496C83" stroke-miterlimit="10" stroke-linecap="round"/>
<path d="M368.02 306.622C368.02 322.119 359.044 324.495 358.919 325.1C358.633 326.527 358.542 329.037 358.772 330.734C358.968 332.168 365.502 336.845 363.333 340.021C362.113 341.814 359.832 339.961 358.563 338.81C355.111 335.665 351.394 331.242 350.76 325.69C350.613 324.39 352.203 312.63 352.259 312.323C353.556 305.255 356.15 292.351 357.266 286.852C357.168 286.247 357.099 285.605 357.078 284.91C356.645 272.215 354.79 236.941 357.901 215.946C364.365 172.296 362.252 151.42 367.559 133.929C370.098 125.561 375.216 120.652 379.833 117.17" stroke="#496C83" stroke-miterlimit="10" stroke-linecap="round"/>
<path d="M390.224 171.437L389.526 171C387.183 187.161 385.468 201.13 381.792 219.615C381.723 219.981 381.555 220.317 381.534 220.675C381.534 220.743 381.555 220.795 381.562 220.862C384.303 240.939 374.003 247.805 372.12 285.358H372.092C371.918 292.77 377.685 297.358 374.268 309.619C373.654 311.823 372.58 320.908 372.747 323.262C372.922 325.69 373.417 332.646 369.707 332.646C365.997 332.646 365.481 327.61 365.481 323.822" stroke="#496C83" stroke-miterlimit="10" stroke-linecap="round"/>
<path d="M377.28 222.655C377.859 224.733 375.718 226.249 374.331 227.265C370.614 230.008 365.725 228.82 365.272 227.587" stroke="#496C83" stroke-miterlimit="10" stroke-linecap="round"/>
<path d="M510.535 340.923C508.877 343.505 505.134 344.788 507.625 348.106C508.5 349.268 513.567 347.385 516.179 344.75C517.04 343.885 520.997 340.27 522.186 336.778C523.146 333.945 523.438 331.812 523.438 331.812" stroke="#496C83" stroke-miterlimit="10" stroke-linecap="round"/>
<path d="M509.914 330.078C510.608 338.4 504.366 336.667 504.366 340.923C504.366 343.352 507.996 343.558 510.608 340.923" stroke="#496C83" stroke-miterlimit="10" stroke-linecap="round"/>
<path d="M507.961 306.622C507.961 322.119 516.936 324.495 517.062 325.1C517.348 326.527 517.438 329.037 517.208 330.734C517.013 332.168 510.478 336.845 512.647 340.021C513.868 341.814 516.148 339.961 517.417 338.81C520.869 335.665 524.586 331.242 525.221 325.69C525.367 324.39 523.777 312.63 523.722 312.323C522.424 305.255 519.83 292.351 518.714 286.852C518.812 286.247 518.882 285.605 518.903 284.91C519.335 272.215 521.19 236.941 518.08 215.946C511.615 172.296 513.728 151.42 508.421 133.929C505.883 125.561 500.764 120.652 496.147 117.17" stroke="#496C83" stroke-miterlimit="10" stroke-linecap="round"/>
<path d="M485.757 171.437L486.454 171C488.797 187.161 490.513 201.13 494.188 219.615C494.258 219.981 494.425 220.317 494.446 220.675C494.446 220.743 494.425 220.795 494.418 220.862C491.678 240.939 501.978 247.805 503.861 285.358H503.889C504.063 292.77 498.296 297.358 501.713 309.619C502.326 311.823 503.4 320.908 503.233 323.262C503.059 325.69 502.564 332.646 506.274 332.646C509.984 332.646 510.5 327.61 510.5 323.822" stroke="#496C83" stroke-miterlimit="10" stroke-linecap="round"/>
<path d="M498.7 222.655C498.121 224.733 500.262 226.249 501.65 227.265C505.367 230.008 510.256 228.82 510.709 227.587" stroke="#496C83" stroke-miterlimit="10" stroke-linecap="round"/>
<path d="M438.767 1C411.997 1 410.415 20.5978 410.284 30.4825C410.18 38.6513 410.651 37.1969 410.568 38.674C410.568 38.674 406.483 38.7691 407.177 44.6921C407.283 47.4662 407.87 53.0144 409.59 56.1353C410.828 58.3816 412.087 58.19 412.087 58.19C414.042 65.0831 417.003 70.8765 421.143 75.554C421.143 75.554 420.796 102.255 418.627 103.42C412.531 108.143 385.865 112.343 379.436 117.617" stroke="#496C83" stroke-linecap="round" stroke-linejoin="round"/>
<path d="M437.406 1C464.176 1 465.758 20.5978 465.889 30.4825C465.993 38.6513 465.522 37.1969 465.605 38.674C465.605 38.674 469.69 38.7691 468.996 44.6921C468.89 47.4662 468.303 53.0144 466.583 56.1353C465.345 58.3816 464.086 58.19 464.086 58.19C462.13 65.0831 459.17 70.8765 455.03 75.554C455.03 75.554 455.377 102.255 457.546 103.42C463.642 108.143 490.308 112.343 496.737 117.617" stroke="#496C83" stroke-linecap="round" stroke-linejoin="round"/>
</svg>
