<svg width="52" height="24" viewBox="0 0 52 24" fill="none" xmlns="http://www.w3.org/2000/svg">
<g clip-path="url(#clip0_197_31171)">
<rect y="3.99951" width="24" height="16.001" rx="8.0005" fill="#4B1B27"/>
</g>
<g clip-path="url(#clip1_197_31171)">
<path fill-rule="evenodd" clip-rule="evenodd" d="M41 2.71961V0.866667C41 0.388019 40.5523 0 40 0C39.4477 0 39 0.38802 39 0.866667V2.71961C34.7558 3.17169 31.3617 6.46858 30.7612 10.6667H28.8667C28.388 10.6667 28 11.1144 28 11.6667C28 12.219 28.388 12.6667 28.8667 12.6667H30.6901C31.0085 17.1783 34.5336 20.8046 39 21.2804V23.1333C39 23.612 39.4477 24 40 24C40.5523 24 41 23.612 41 23.1333V21.2804C45.2442 20.8283 48.6383 17.5314 49.2388 13.3333H51.1333C51.612 13.3333 52 12.8856 52 12.3333C52 11.781 51.612 11.3333 51.1333 11.3333H49.3099C48.9915 6.82168 45.4664 3.19536 41 2.71961ZM39 7.8C39 8.27865 39.4477 8.66667 40 8.66667C40.5523 8.66667 41 8.27865 41 7.8V4.42852C44.528 4.88996 47.2986 7.75958 47.6077 11.3333H44.2C43.7214 11.3333 43.3333 11.781 43.3333 12.3333C43.3333 12.8856 43.7214 13.3333 44.2 13.3333H47.5204C46.9465 16.5925 44.3057 19.1391 41 19.5715V16.2C41 15.7214 40.5523 15.3333 40 15.3333C39.4477 15.3333 39 15.7214 39 16.2V19.5715C35.472 19.11 32.7014 16.2404 32.3923 12.6667H35.8C36.2786 12.6667 36.6667 12.219 36.6667 11.6667C36.6667 11.1144 36.2786 10.6667 35.8 10.6667H32.4796C33.0535 7.40755 35.6943 4.86089 39 4.42852V7.8Z" fill="#660900"/>
</g>
<defs>
<clipPath id="clip0_197_31171">
<rect y="3.99951" width="24" height="16.001" rx="8.0005" fill="white"/>
</clipPath>
<clipPath id="clip1_197_31171">
<rect width="24" height="24" fill="white" transform="translate(28)"/>
</clipPath>
</defs>
</svg>
