<svg width="24" height="24" viewBox="0 0 24 24" fill="none" xmlns="http://www.w3.org/2000/svg">
<g clip-path="url(#clip0_197_24718)">
<path fill-rule="evenodd" clip-rule="evenodd" d="M13 2.71961V0.866667C13 0.388019 12.5523 0 12 0C11.4477 0 11 0.38802 11 0.866667V2.71961C6.75582 3.17169 3.36167 6.46858 2.76119 10.6667H0.866667C0.388019 10.6667 0 11.1144 0 11.6667C0 12.219 0.38802 12.6667 0.866667 12.6667H2.69011C3.00852 17.1783 6.53356 20.8046 11 21.2804V23.1333C11 23.612 11.4477 24 12 24C12.5523 24 13 23.612 13 23.1333V21.2804C17.2442 20.8283 20.6383 17.5314 21.2388 13.3333H23.1333C23.612 13.3333 24 12.8856 24 12.3333C24 11.781 23.612 11.3333 23.1333 11.3333H21.3099C20.9915 6.82168 17.4664 3.19536 13 2.71961ZM11 7.8C11 8.27865 11.4477 8.66667 12 8.66667C12.5523 8.66667 13 8.27865 13 7.8V4.42852C16.528 4.88996 19.2986 7.75958 19.6077 11.3333H16.2C15.7214 11.3333 15.3333 11.781 15.3333 12.3333C15.3333 12.8856 15.7214 13.3333 16.2 13.3333H19.5204C18.9465 16.5925 16.3057 19.1391 13 19.5715V16.2C13 15.7214 12.5523 15.3333 12 15.3333C11.4477 15.3333 11 15.7214 11 16.2V19.5715C7.47198 19.11 4.70141 16.2404 4.39233 12.6667H7.8C8.27865 12.6667 8.66667 12.219 8.66667 11.6667C8.66667 11.1144 8.27865 10.6667 7.8 10.6667H4.47964C5.05353 7.40755 7.69426 4.86089 11 4.42852V7.8Z" fill="#660900"/>
</g>
<defs>
<clipPath id="clip0_197_24718">
<rect width="24" height="24" fill="white"/>
</clipPath>
</defs>
</svg>
