<svg width="50" height="24" viewBox="0 0 50 24" fill="none" xmlns="http://www.w3.org/2000/svg">
<g clip-path="url(#clip0_197_31174)">
<rect y="3.99951" width="24" height="16.001" rx="8.0005" fill="#CC1100"/>
</g>
<g clip-path="url(#clip1_197_31174)">
<g clip-path="url(#clip2_197_31174)">
<path fill-rule="evenodd" clip-rule="evenodd" d="M26.8149 0.814774C27.0681 0.561551 27.4672 0.528253 27.7589 0.73601L36.3899 6.88359L37.9758 2.42109C38.0797 2.12867 38.3564 1.93332 38.6668 1.93332C38.9771 1.93332 39.2539 2.12867 39.3578 2.42109L40.9973 7.03472L45.4309 4.9371C45.7113 4.80446 46.0447 4.86253 46.2638 5.08211C46.4828 5.3017 46.54 5.63532 46.4066 5.91532L44.3007 10.3368L48.9123 11.9757C49.2048 12.0796 49.4001 12.3563 49.4001 12.6667C49.4001 12.977 49.2048 13.2537 48.9123 13.3576L44.3001 14.9967L46.4069 19.4296C46.5401 19.7099 46.4825 20.0436 46.2631 20.263C46.0437 20.4824 45.71 20.5399 45.4298 20.4068L40.9968 18.2999L39.3578 22.9122C39.2539 23.2046 38.9771 23.4 38.6668 23.4C38.3564 23.4 38.0797 23.2046 37.9758 22.9122L36.3369 18.3006L31.9154 20.4065C31.6354 20.5399 31.3018 20.4827 31.0822 20.2636C30.8626 20.0446 30.8046 19.7112 30.9372 19.4308L33.0348 14.9972L28.4212 13.3576C28.1288 13.2537 27.9334 12.977 27.9334 12.6667C27.9334 12.3563 28.1288 12.0796 28.4212 11.9757L32.8837 10.3898L26.7361 1.75876C26.5284 1.46707 26.5617 1.068 26.8149 0.814774ZM30.4625 4.46235L34.6419 10.3301C34.7753 10.5174 34.8131 10.7565 34.744 10.9759C34.6749 11.1953 34.5068 11.3695 34.2901 11.4465L30.8568 12.6667L34.2901 13.8868C34.4854 13.9562 34.6423 14.105 34.7218 14.2964C34.8013 14.4879 34.7961 14.704 34.7074 14.8914L33.1435 18.1971L36.4403 16.6268C36.6278 16.5375 36.8443 16.5319 37.0361 16.6113C37.2279 16.6907 37.3771 16.8477 37.4467 17.0433L38.6668 20.4767L39.8869 17.0433C39.9564 16.8478 40.1055 16.6908 40.2972 16.6114C40.4889 16.532 40.7052 16.5375 40.8927 16.6265L44.1972 18.1971L42.6267 14.8925C42.5376 14.7051 42.5321 14.4887 42.6115 14.297C42.691 14.1053 42.8479 13.9563 43.0434 13.8868L46.4768 12.6667L43.0434 11.4465C42.8478 11.377 42.6908 11.2278 42.6114 11.036C42.532 10.8441 42.5376 10.6276 42.6269 10.4402L44.1972 7.14333L40.8915 8.70731C40.7041 8.79597 40.488 8.80118 40.2966 8.72165C40.1051 8.64213 39.9563 8.48531 39.8869 8.28999L38.6668 4.85665L37.4467 8.28999C37.3696 8.50672 37.1954 8.67475 36.976 8.74387C36.7567 8.81299 36.5176 8.77517 36.3302 8.64174L30.4625 4.46235Z" fill="#CC1100"/>
</g>
</g>
<defs>
<clipPath id="clip0_197_31174">
<rect y="3.99951" width="24" height="16.001" rx="8.0005" fill="white"/>
</clipPath>
<clipPath id="clip1_197_31174">
<rect width="24" height="24" fill="white" transform="translate(26)"/>
</clipPath>
<clipPath id="clip2_197_31174">
<rect width="24" height="24" fill="white" transform="translate(26)"/>
</clipPath>
</defs>
</svg>
