<svg width="24" height="24" viewBox="0 0 24 24" fill="none" xmlns="http://www.w3.org/2000/svg">
<g clip-path="url(#clip0_197_24721)">
<g clip-path="url(#clip1_197_24721)">
<path fill-rule="evenodd" clip-rule="evenodd" d="M0.814896 0.814774C1.06812 0.561551 1.4672 0.528253 1.75888 0.73601L10.3899 6.88359L11.9758 2.42109C12.0797 2.12867 12.3564 1.93332 12.6668 1.93332C12.9771 1.93332 13.2539 2.12867 13.3578 2.42109L14.9973 7.03472L19.4309 4.9371C19.7113 4.80446 20.0447 4.86253 20.2638 5.08211C20.4828 5.3017 20.54 5.63532 20.4066 5.91532L18.3007 10.3368L22.9123 11.9757C23.2048 12.0796 23.4001 12.3563 23.4001 12.6667C23.4001 12.977 23.2048 13.2537 22.9123 13.3576L18.3001 14.9967L20.4069 19.4296C20.5401 19.7099 20.4825 20.0436 20.2631 20.263C20.0437 20.4824 19.71 20.5399 19.4298 20.4068L14.9968 18.2999L13.3578 22.9122C13.2539 23.2046 12.9771 23.4 12.6668 23.4C12.3564 23.4 12.0797 23.2046 11.9758 22.9122L10.3369 18.3006L5.91545 20.4065C5.63544 20.5399 5.30182 20.4827 5.08223 20.2636C4.86265 20.0446 4.80458 19.7112 4.93722 19.4308L7.03484 14.9972L2.42121 13.3576C2.12879 13.2537 1.93344 12.977 1.93344 12.6667C1.93344 12.3563 2.12879 12.0796 2.42121 11.9757L6.88372 10.3898L0.736132 1.75876C0.528375 1.46707 0.561673 1.068 0.814896 0.814774ZM4.46247 4.46235L8.64186 10.3301C8.7753 10.5174 8.81311 10.7565 8.74399 10.9759C8.67487 11.1953 8.50684 11.3695 8.29011 11.4465L4.85677 12.6667L8.29011 13.8868C8.48543 13.9562 8.64226 14.105 8.72178 14.2964C8.8013 14.4879 8.79609 14.704 8.70744 14.8914L7.14345 18.1971L10.4403 16.6268C10.6278 16.5375 10.8443 16.5319 11.0361 16.6113C11.2279 16.6907 11.3771 16.8477 11.4467 17.0433L12.6668 20.4767L13.8869 17.0433C13.9564 16.8478 14.1055 16.6908 14.2972 16.6114C14.4889 16.532 14.7052 16.5375 14.8927 16.6265L18.1972 18.1971L16.6267 14.8925C16.5376 14.7051 16.5321 14.4887 16.6115 14.297C16.691 14.1053 16.8479 13.9563 17.0434 13.8868L20.4768 12.6667L17.0434 11.4465C16.8478 11.377 16.6908 11.2278 16.6114 11.036C16.532 10.8441 16.5376 10.6276 16.6269 10.4402L18.1972 7.14333L14.8915 8.70731C14.7041 8.79597 14.488 8.80118 14.2966 8.72165C14.1051 8.64213 13.9563 8.48531 13.8869 8.28999L12.6668 4.85665L11.4467 8.28999C11.3696 8.50672 11.1954 8.67475 10.976 8.74387C10.7567 8.81299 10.5176 8.77517 10.3302 8.64174L4.46247 4.46235Z" fill="#CC1100"/>
</g>
</g>
<defs>
<clipPath id="clip0_197_24721">
<rect width="24" height="24" fill="white"/>
</clipPath>
<clipPath id="clip1_197_24721">
<rect width="24" height="24" fill="white"/>
</clipPath>
</defs>
</svg>
