<svg width="24" height="25" viewBox="0 0 24 25" fill="none" xmlns="http://www.w3.org/2000/svg">
<path d="M7.2079 6.72201C6.89548 6.40428 6.38895 6.40428 6.07653 6.72201C5.76411 7.03973 5.76411 7.55486 6.07653 7.87259L7.34932 9.16699C7.66174 9.48471 8.16827 9.48471 8.48069 9.16699C8.79311 8.84926 8.79311 8.33413 8.48069 8.01641L7.2079 6.72201Z" fill="#0F8A61"/>
<path d="M11.0263 10.6052C10.7139 10.2875 10.2073 10.2875 9.8949 10.6052C9.58248 10.9229 9.58248 11.4381 9.8949 11.7558L12.4405 14.3446C12.7529 14.6623 13.2594 14.6623 13.5719 14.3446C13.8843 14.0269 13.8843 13.5117 13.5719 13.194L11.0263 10.6052Z" fill="#0F8A61"/>
<path d="M16.1174 15.7828C15.805 15.4651 15.2985 15.4651 14.9861 15.7828C14.6737 16.1005 14.6737 16.6157 14.9861 16.9334L16.2589 18.2278C16.5713 18.5455 17.0778 18.5455 17.3902 18.2278C17.7027 17.9101 17.7027 17.3949 17.3902 17.0772L16.1174 15.7828Z" fill="#0F8A61"/>
<path fill-rule="evenodd" clip-rule="evenodd" d="M6.79509 1.97588L1.60964 7.24937C0.464103 8.41436 0.464104 10.3032 1.60964 11.4682L12.9233 22.974C14.0689 24.1389 15.9262 24.1389 17.0717 22.974L22.2572 17.7005C23.4027 16.5355 23.4027 14.6467 22.2572 13.4817L10.9434 1.97588C9.79791 0.810896 7.94063 0.810895 6.79509 1.97588ZM2.74101 10.3176C2.22031 9.78805 2.22031 8.92949 2.74101 8.39995L7.92646 3.12646C8.44716 2.59692 9.29138 2.59692 9.81208 3.12646L21.1258 14.6323C21.6465 15.1618 21.6465 16.0204 21.1258 16.5499L15.9403 21.8234C15.4196 22.3529 14.5754 22.3529 14.0547 21.8234L2.74101 10.3176Z" fill="#0F8A61"/>
</svg>
