<svg width="67" height="25" viewBox="0 0 67 25" fill="none" xmlns="http://www.w3.org/2000/svg">
<g clip-path="url(#clip0_197_31167)">
<rect y="4.79578" width="39" height="16.001" rx="8.0005" fill="#0F8A61"/>
</g>
<path d="M50.2079 7.31457C49.8955 6.99684 49.3889 6.99684 49.0765 7.31457C48.7641 7.63229 48.7641 8.14742 49.0765 8.46515L50.3493 9.75955C50.6617 10.0773 51.1683 10.0773 51.4807 9.75955C51.7931 9.44182 51.7931 8.92669 51.4807 8.60897L50.2079 7.31457Z" fill="#0F8A61"/>
<path d="M54.0263 11.1978C53.7139 10.88 53.2073 10.88 52.8949 11.1978C52.5825 11.5155 52.5825 12.0306 52.8949 12.3484L55.4405 14.9372C55.7529 15.2549 56.2594 15.2549 56.5719 14.9372C56.8843 14.6194 56.8843 14.1043 56.5719 13.7866L54.0263 11.1978Z" fill="#0F8A61"/>
<path d="M59.1174 16.3754C58.805 16.0577 58.2985 16.0577 57.9861 16.3754C57.6737 16.6931 57.6737 17.2082 57.9861 17.526L59.2589 18.8204C59.5713 19.1381 60.0778 19.1381 60.3902 18.8204C60.7027 18.5026 60.7027 17.9875 60.3902 17.6698L59.1174 16.3754Z" fill="#0F8A61"/>
<path fill-rule="evenodd" clip-rule="evenodd" d="M49.7951 2.56844L44.6096 7.84193C43.4641 9.00692 43.4641 10.8957 44.6096 12.0607L55.9233 23.5665C57.0689 24.7315 58.9262 24.7315 60.0717 23.5665L65.2572 18.293C66.4027 17.128 66.4027 15.2392 65.2572 14.0742L53.9434 2.56844C52.7979 1.40346 50.9406 1.40345 49.7951 2.56844ZM45.741 10.9101C45.2203 10.3806 45.2203 9.52205 45.741 8.99251L50.9265 3.71902C51.4472 3.18948 52.2914 3.18948 52.8121 3.71902L64.1258 15.2248C64.6465 15.7544 64.6465 16.6129 64.1258 17.1425L58.9403 22.4159C58.4196 22.9455 57.5754 22.9455 57.0547 22.4159L45.741 10.9101Z" fill="#0F8A61"/>
<defs>
<clipPath id="clip0_197_31167">
<rect y="4.79578" width="39" height="16.001" rx="8.0005" fill="white"/>
</clipPath>
</defs>
</svg>
